<?xml version="1.0" standalone="no"?>
<!DOCTYPE svg PUBLIC "-//W3C//DTD SVG 20010904//EN"
 "http://www.w3.org/TR/2001/REC-SVG-20010904/DTD/svg10.dtd">
<svg version="1.0" xmlns="http://www.w3.org/2000/svg"
 width="300.000000pt" height="287.000000pt" viewBox="0 0 300.000000 287.000000"
 preserveAspectRatio="xMidYMid meet">
<metadata>
Created by potrace 1.10, written by Peter Selinger 2001-2011
</metadata>
<g transform="translate(0.000000,287.000000) scale(0.050000,-0.050000)"
fill="#064109" stroke="none">
<path d="M2765 4818 c-1012 -212 -1769 -1007 -1905 -2000 -13 -92 -27 -198
-33 -236 -7 -46 -43 -103 -113 -177 l-104 -110 114 14 114 14 21 -87 c111
-450 259 -739 521 -1016 127 -134 135 -131 36 15 -253 373 -512 1132 -407
1194 20 11 215 153 433 315 534 396 468 360 599 326 132 -36 240 -38 307 -7
45 20 260 -98 431 -237 17 -14 -175 -196 -689 -656 -286 -255 -547 -494 -580
-530 l-60 -66 150 78 c204 106 716 447 1147 764 l357 263 127 -90 127 -91 45
61 c53 72 78 76 129 18 21 -23 215 -190 431 -370 408 -339 437 -374 437 -519
0 -100 -284 -176 -1010 -268 -837 -107 -930 -145 -1069 -428 -43 -89 -119
-223 -170 -297 -114 -170 -118 -155 58 -231 593 -255 1088 -290 1723 -122 93
24 168 49 168 56 -1 7 -115 86 -255 176 -336 215 -605 467 -605 565 0 57 313
173 710 262 243 55 590 181 590 215 0 55 -254 402 -493 674 -87 99 -230 265
-318 370 -87 104 -244 277 -347 385 l-188 196 -172 -183 -171 -184 -176 188
c-209 224 -204 189 -40 308 74 54 164 120 199 146 l65 48 23 -92 c27 -110 25
-110 178 -20 79 46 130 65 146 53 167 -125 454 -373 461 -400 6 -19 16 -73 23
-120 17 -107 9 -109 221 45 l179 131 6 -81 c7 -92 29 -99 140 -42 71 36 132
49 208 44 18 -1 99 -55 180 -119 80 -64 278 -213 440 -331 256 -187 296 -224
307 -281 37 -195 -156 -684 -444 -1130 l-111 -171 114 110 c279 268 376 418
511 790 52 143 114 302 138 354 56 119 73 92 -209 340 -132 116 -427 401 -655
632 l-414 421 -192 -219 c-106 -120 -199 -218 -208 -218 -30 0 -276 240 -529
517 -142 156 -273 283 -291 283 -38 0 -195 -159 -481 -486 l-206 -237 -184
183 -183 183 -519 -517 -518 -516 -6 84 c-9 121 65 406 154 596 609 1300 2360
1674 3511 748 389 -312 584 -632 723 -1180 85 -338 93 -351 136 -226 104 306
-187 1017 -584 1424 -564 579 -1445 861 -2199 702z"/>
</g>
</svg>
